<svg width="24" height="25" fill="none" xmlns="http://www.w3.org/2000/svg"><g clip-path="url(#clip0_458_1105)"><path d="M16.624 14.505l2.717 2.719-7.353 7.36-7.352-7.36 2.717-2.719 4.636 4.664 4.635-4.664zm4.637-4.64L24 12.584l-2.715 2.718-2.717-2.718 2.693-2.719zm-9.272 0l2.716 2.695-2.717 2.72-2.716-2.696 2.716-2.718h.001zm-9.273 0l2.694 2.719-2.692 2.694L0 12.584l2.716-2.719zM11.99.583l7.352 7.337-2.717 2.717-4.636-4.64-4.635 4.664-2.717-2.718L11.989.584h.001z" fill="#F3BA2F"/></g><defs><clipPath id="clip0_458_1105"><path fill="#fff" transform="translate(0 .25)" d="M0 0h24v24H0z"/></clipPath></defs></svg>