<svg width="25" height="25" fill="none" xmlns="http://www.w3.org/2000/svg"><path d="M15.294 22.422h-6v-2h6v2zm0-3h-6l-.223-2a8.458 8.458 0 00-.591-1.92c-.354-.5-.723-.928-1.08-1.345a6.666 6.666 0 01-2.106-4.735 7 7 0 1114 0 6.693 6.693 0 01-2.093 4.711l-.017.02a17.69 17.69 0 00-1.071 1.344 8.605 8.605 0 00-.593 1.925l-.226 2zm-3-15a5.006 5.006 0 00-5 5c0 1.544.644 2.293 1.618 3.428.37.432.79.92 1.2 1.491.498.967.838 2.007 1.007 3.081h2.35a10.464 10.464 0 011.007-3.075c.4-.57.819-1.062 1.188-1.494l.015-.018c.972-1.14 1.615-1.893 1.615-3.413a5.006 5.006 0 00-5-5z" fill="#BFF501"/></svg>