<svg width="24" height="25" fill="none" xmlns="http://www.w3.org/2000/svg"><g clip-path="url(#clip0_458_1119)" fill="#ECECEC"><path d="M6.58 12.258a1.617 1.617 0 001.522 1.702h.096c.896 0 1.62-.723 1.613-1.619 0-.896-.723-1.619-1.619-1.613-.858 0-1.568.672-1.613 1.53zm-6.03-.416a.523.523 0 10-.057 1.043.523.523 0 00.057-1.043zm5.927-8.966a.528.528 0 00.23-.704.528.528 0 00-.704-.23.52.52 0 00-.23.697.518.518 0 00.704.237zm1.638 2.86a.807.807 0 00.359-1.081.807.807 0 00-1.082-.359.807.807 0 00-.358 1.082.807.807 0 001.081.358zM2.598 7.701a.67.67 0 00.922-.192.67.67 0 00-.192-.921.67.67 0 00-.922.192.663.663 0 00.192.921zm.98 3.853a.804.804 0 00-.852.762.804.804 0 00.762.85.808.808 0 00.09-1.613zm-.89 5.421a.668.668 0 10.603 1.19.668.668 0 00-.603-1.19zm3.136-7.091a.942.942 0 001.312-.276.942.942 0 00-.275-1.312.942.942 0 00-1.312.276.944.944 0 00.275 1.312zm9.952-4.212a.812.812 0 001.12-.23.812.812 0 00-.23-1.12.812.812 0 00-1.12.23.8.8 0 00.23 1.12zm1.651-2.848a.52.52 0 00.723-.153.52.52 0 00-.153-.723.524.524 0 00-.723.147.54.54 0 00.153.73zm-1.529 7.892a1.613 1.613 0 00-1.703 1.523 1.613 1.613 0 001.523 1.702h.09c.89 0 1.613-.723 1.613-1.619a1.604 1.604 0 00-1.523-1.606zm-7.252-.948a1.616 1.616 0 003.06-.73 1.613 1.613 0 00-2.342-1.446c-.8.41-1.12 1.383-.718 2.176zm12.666-2.067a.667.667 0 00.288-.896.667.667 0 00-1.19.602c.172.326.57.46.902.294zm-4.096.512a.95.95 0 101.274.423.955.955 0 00-1.274-.423zm-5.28-5.632a.674.674 0 00.704-.627.67.67 0 00-.627-.704.67.67 0 00-.704.62.676.676 0 00.627.711zM11.93 6.76a.942.942 0 00.998-.896.942.942 0 00-.896-.998.942.942 0 00-.998.896.947.947 0 00.896.998zm-5.146 9.703a.95.95 0 10-.852-1.696.95.95 0 00.852 1.696zm5.76-8.313a1.611 1.611 0 00.467 2.233 1.611 1.611 0 002.234-.467 1.611 1.611 0 00-1.35-2.496 1.62 1.62 0 00-1.351.73zm2.81 6.758a1.613 1.613 0 00-2.17-.717 1.613 1.613 0 00-.717 2.17c.403.8 1.376 1.12 2.17.716a1.608 1.608 0 00.723-2.157c0-.006 0-.006-.006-.012zm2.822-.116a.942.942 0 00-1.312.276.942.942 0 00.275 1.312.942.942 0 001.312-.276.944.944 0 00-.275-1.312zm3.098-2.425a.804.804 0 00-.762-.851.804.804 0 00-.851.761.804.804 0 00.761.851.812.812 0 00.852-.761zm2.233-.577a.523.523 0 10-.057 1.043.523.523 0 00.057-1.042zm-2.105 5.185a.67.67 0 00-.922.192.67.67 0 00.192.921.67.67 0 00.922-.192.663.663 0 00-.192-.921zM6.566 21.852a.524.524 0 00-.723.147.524.524 0 00.147.723c.244.16.564.09.724-.147a.514.514 0 00-.148-.723zm10.957-.052a.528.528 0 00-.23.704.528.528 0 00.704.23.52.52 0 00.23-.697.518.518 0 00-.704-.237zm-6.067-5.273a1.62 1.62 0 00-.467-2.24 1.62 1.62 0 00-2.24.467 1.614 1.614 0 001.35 2.502 1.593 1.593 0 001.357-.73zm-3.232 2.477a.812.812 0 00-1.12.23.812.812 0 00.23 1.12.812.812 0 001.12-.23.8.8 0 00-.23-1.12zm3.77 3.091a.674.674 0 00-.704.627.67.67 0 00.627.704.67.67 0 00.704-.62.676.676 0 00-.627-.711zM12 17.916a.942.942 0 00-.998.896.942.942 0 00.896.998.947.947 0 00.998-.896.946.946 0 00-.896-.998zm3.885 1.024a.809.809 0 00.736 1.44.807.807 0 00.358-1.082.817.817 0 00-1.094-.358z"/></g><defs><clipPath id="clip0_458_1119"><path fill="#fff" transform="translate(0 .25)" d="M0 0h24v24H0z"/></clipPath></defs></svg>