<svg width="32" height="33" fill="none" xmlns="http://www.w3.org/2000/svg"><path d="M10.14 3.134c1.067.355 2.082.847 3.02 1.463 1.323-.333 2.684-.5 4.05-.498 1.412 0 2.773.173 4.05.496a12.989 12.989 0 013.017-1.461c.991-.332 2.402-.869 3.24.044.569.621.711 1.662.812 2.456.113.887.14 2.042-.158 3.19 1.141 1.45 1.829 3.18 1.829 5.065 0 2.856-1.572 5.336-3.898 7.053a13.51 13.51 0 01-3.68 1.897c.304.685.473 1.443.473 2.239v4.196c0 .37-.15.726-.416.989-.267.262-.628.41-1.005.41h-8.526c-.377 0-.739-.148-1.005-.41a1.388 1.388 0 01-.416-.99v-1.385c-1.357.163-2.496.018-3.464-.386-1.011-.423-1.716-1.077-2.246-1.704-.503-.593-1.052-1.93-1.845-2.19a1.429 1.429 0 01-.822-.701 1.379 1.379 0 01-.077-1.068 1.41 1.41 0 01.712-.81 1.442 1.442 0 011.085-.076c.947.31 1.564.982 1.986 1.522.682.867 1.236 2 2.316 2.452.445.186 1.097.308 2.117.17l.238-.047A5.502 5.502 0 0112 22.839a13.51 13.51 0 01-3.68-1.897c-2.328-1.717-3.9-4.196-3.9-7.052 0-1.882.687-3.611 1.825-5.06-.298-1.147-.273-2.305-.16-3.193l.008-.053c.104-.814.224-1.772.804-2.405.839-.913 2.251-.374 3.24-.043l.002-.001z" fill="#BAF821"/></svg>