<svg width="25" height="25" fill="none" xmlns="http://www.w3.org/2000/svg"><g clip-path="url(#clip0_458_895)"><path fill-rule="evenodd" clip-rule="evenodd" d="M12.473 5.544c-1.406.394-3.031 1.349-4.495 2.813C6.514 9.82 5.56 11.446 5.166 12.85c-.403 1.44-.173 2.42.337 2.93.345.345.887.56 1.663.54.782-.017 1.736-.274 2.761-.796 1.003-.51 2.04-1.257 3-2.219.962-.961 1.71-1.998 2.22-3 .521-1.025.778-1.98.796-2.761.019-.777-.195-1.318-.54-1.663-.51-.51-1.49-.74-2.93-.338zm5.405 2.813a8.764 8.764 0 01-.637 2.191l1.627 1.628a5.369 5.369 0 00.257-1.45c.019-.776-.195-1.317-.54-1.662l-.707-.707zm.102 5.759l-1.731-1.731a14.313 14.313 0 01-1.223 1.605l1.765 1.765c.462-.538.86-1.09 1.19-1.64zm-2.604 3.053l-1.764-1.764c-.521.457-1.06.866-1.606 1.222l1.731 1.732c.55-.33 1.101-.728 1.64-1.19zm-3.579 2.078l-1.627-1.628a8.77 8.77 0 01-2.192.637l.707.707c.345.345.887.559 1.663.54.436-.01.925-.093 1.45-.256zm.136-15.629c1.76-.492 3.636-.398 4.884.85l3.182 3.181c.833.833 1.153 1.963 1.126 3.125-.027 1.156-.395 2.405-1.014 3.62-.612 1.204-1.488 2.41-2.587 3.508-1.1 1.1-2.305 1.975-3.508 2.587-1.216.62-2.465.987-3.62 1.014-1.162.027-2.292-.293-3.125-1.126l-3.182-3.182c-1.248-1.247-1.342-3.124-.849-4.883.502-1.794 1.663-3.71 3.324-5.37 1.66-1.66 3.576-2.821 5.37-3.324z" fill="#BFF501"/></g><defs><clipPath id="clip0_458_895"><path fill="#fff" transform="translate(.294 .422)" d="M0 0h24v24H0z"/></clipPath></defs></svg>