<svg width="32" height="33" fill="none" xmlns="http://www.w3.org/2000/svg"><path d="M25.703 7.448a22.998 22.998 0 00-5.699-1.772.086.086 0 00-.053.006.088.088 0 00-.04.037 16.321 16.321 0 00-.708 1.463 21.25 21.25 0 00-6.402 0c-.213-.501-.453-.99-.72-1.463a.088.088 0 00-.092-.045c-2 .344-3.913.951-5.699 1.773a.082.082 0 00-.037.032c-3.63 5.442-4.626 10.75-4.137 15.99a.097.097 0 00.036.066 23.193 23.193 0 006.992 3.544.09.09 0 00.098-.03 16.5 16.5 0 001.43-2.336.09.09 0 00-.048-.124 15.26 15.26 0 01-2.184-1.044.088.088 0 01-.044-.072.09.09 0 01.035-.076c.147-.111.294-.226.434-.342a.087.087 0 01.091-.012c4.581 2.099 9.543 2.099 14.07 0a.086.086 0 01.093.01c.14.117.286.233.434.343a.09.09 0 01-.007.149c-.698.41-1.423.756-2.185 1.043a.088.088 0 00-.058.088.088.088 0 00.01.037c.42.817.9 1.595 1.43 2.334a.09.09 0 00.097.033 23.114 23.114 0 007.002-3.545.09.09 0 00.038-.065c.583-6.059-.978-11.323-4.14-15.989a.07.07 0 00-.037-.033zm-14.346 12.83c-1.379 0-2.516-1.272-2.516-2.831 0-1.56 1.115-2.831 2.516-2.831 1.412 0 2.539 1.28 2.516 2.83 0 1.561-1.115 2.832-2.516 2.832zm9.304 0c-1.38 0-2.517-1.272-2.517-2.831 0-1.56 1.115-2.831 2.517-2.831 1.412 0 2.538 1.28 2.516 2.83 0 1.561-1.103 2.832-2.516 2.832z" fill="#BAF821"/></svg>