<svg width="25" height="25" fill="none" xmlns="http://www.w3.org/2000/svg"><path fill-rule="evenodd" clip-rule="evenodd" d="M10.739 22.302a9.925 9.925 0 001.555.12 10.136 10.136 0 001.555-.12 9.997 9.997 0 007.107-4.88 9.937 9.937 0 001.338-5 9.937 9.937 0 00-1.92-5.893 9.997 9.997 0 00-9.612-3.99 9.997 9.997 0 00-7.13 4.883 9.936 9.936 0 00-1.338 5 9.937 9.937 0 001.925 5.9 9.997 9.997 0 006.52 3.98zm-4.273-4.4a8.026 8.026 0 002.209 1.657 14.218 14.218 0 01-.91-1.858c-.423.06-.855.127-1.3.202zm3.375-.438c.383.838.867 1.647 1.453 2.412v-2.502c-.479.018-.961.048-1.453.09zm1.453-2.091a33.41 33.41 0 00-2.147.147c-.181-.69-.3-1.392-.355-2.098h2.502v1.95zm2-1.95v1.945c.707.021 1.42.068 2.15.139.18-.686.296-1.384.352-2.085h-2.502zm2.491-2h-2.491V9.571a30.37 30.37 0 002.14-.157c.174.662.291 1.333.351 2.007zm2.016 2c-.052.783-.17 1.563-.356 2.333.632.094 1.283.205 1.961.333a7.93 7.93 0 00.826-2.667h-2.43zm2.431-2h-2.44a14.148 14.148 0 00-.364-2.279 51.044 51.044 0 001.99-.365c.416.81.697 1.7.814 2.643zm-2.069-4.437a8.023 8.023 0 00-2.314-1.733c.372.638.693 1.294.96 1.964.44-.068.89-.145 1.354-.231zm-3.415.488a12.966 12.966 0 00-1.454-2.459V7.57c.478-.019.96-.05 1.454-.096zm-6.009-2.22A8.024 8.024 0 006.421 6.99c.464.087.915.165 1.355.233.268-.672.59-1.33.963-1.97zM7.16 9.15a49.703 49.703 0 01-1.991-.368 7.931 7.931 0 00-.812 2.64h2.44c.059-.762.18-1.522.363-2.272zm1.644 2.272c.06-.672.176-1.341.35-2.001a30.34 30.34 0 002.14.153v1.848h-2.49zm2.49-3.85c-.48-.017-.963-.049-1.455-.093.384-.855.87-1.68 1.456-2.464v2.557zm-4.507 5.85c.053.789.173 1.574.36 2.348a57.24 57.24 0 00-1.96.328 7.93 7.93 0 01-.83-2.676h2.43zm11.347 4.47c-.446-.077-.88-.145-1.304-.205a14.23 14.23 0 01-.916 1.872 8.024 8.024 0 002.22-1.668zm-4.84 1.984a12.488 12.488 0 001.459-2.424c-.492-.04-.976-.068-1.458-.083v2.507z" fill="#BFF501"/></svg>