<svg width="32" height="33" fill="none" xmlns="http://www.w3.org/2000/svg"><path d="M30 16.45c0-1.775-1.398-3.194-3.145-3.017-.699 0-1.573.355-2.097.887-2.446-1.597-5.242-2.662-8.212-2.662l1.398-6.743 4.543 1.064c0 1.243 1.048 2.13 2.271 2.13 1.223 0 2.097-1.065 2.097-2.307s-1.048-2.13-2.271-2.13c-.874 0-1.573.533-1.922 1.243l-4.893-1.243h-.35c-.174 0-.174.178-.174.355l-1.747 7.631c-2.97 0-5.766.888-8.213 2.662-1.223-1.242-3.145-1.242-4.368 0a3.141 3.141 0 000 4.437c.175.177.525.532.874.532v.888c0 4.791 5.416 8.695 12.23 8.695 6.815 0 12.232-3.904 12.232-8.695v-.888A3.166 3.166 0 0030 16.45zM9.033 18.757c0-1.242 1.048-2.13 2.097-2.13 1.223 0 2.096 1.065 2.096 2.13s-1.048 2.13-2.097 2.13c-1.223 0-2.096-.888-2.096-2.13zm12.23 5.856c-1.572 1.065-3.32 1.775-5.241 1.597-1.922 0-3.67-.532-5.242-1.597-.175-.177-.175-.532 0-.887a.524.524 0 01.699 0c1.223.887 2.796 1.42 4.368 1.242 1.573.178 3.145-.355 4.368-1.242.175-.178.524-.178.874 0 .35.177.35.532.175.887zm-.524-3.727c-1.223 0-2.096-1.064-2.096-2.13 0-1.064 1.048-2.129 2.096-2.129 1.224 0 2.097 1.065 2.097 2.13.175 1.242-.873 2.13-2.096 2.13z" fill="#BAF821"/></svg>