<svg width="53" height="22" fill="none" xmlns="http://www.w3.org/2000/svg"><path d="M6.068 7.04c-.088 0-.11-.044-.066-.11l.463-.595c.044-.067.154-.11.242-.11h7.873c.088 0 .11.066.066.132l-.375.573c-.044.066-.154.132-.22.132L6.067 7.04zm-3.33 2.029c-.088 0-.11-.044-.066-.11l.463-.596c.044-.066.154-.11.243-.11h10.055c.088 0 .132.066.11.132l-.176.53c-.022.088-.11.132-.199.132l-10.43.022zm5.336 2.028c-.088 0-.11-.066-.066-.132l.309-.551c.044-.066.132-.133.22-.133h4.41c.089 0 .133.067.133.155l-.044.53c0 .087-.088.154-.154.154l-4.808-.023zm22.89-4.454c-1.39.353-2.338.618-3.705.97-.33.089-.353.11-.64-.22-.33-.375-.573-.618-1.036-.838-1.39-.684-2.734-.485-3.991.33-1.5.97-2.271 2.404-2.25 4.19.023 1.764 1.236 3.22 2.978 3.462 1.5.199 2.756-.33 3.748-1.455.199-.243.375-.507.596-.816h-4.256c-.463 0-.574-.287-.42-.661A35.2 35.2 0 0123.114 9.2a.595.595 0 01.552-.353h8.026c-.044.596-.044 1.191-.132 1.786-.243 1.588-.838 3.043-1.808 4.322-1.588 2.095-3.66 3.396-6.285 3.749-2.16.287-4.167-.132-5.931-1.455-1.632-1.235-2.558-2.867-2.8-4.896-.288-2.403.418-4.564 1.873-6.46 1.566-2.051 3.639-3.352 6.175-3.815 2.072-.375 4.057-.133 5.843 1.08 1.169.772 2.007 1.83 2.558 3.11.132.198.044.308-.22.374z" fill="#00ACD7"/><path d="M38.262 18.837c-2.006-.044-3.837-.617-5.38-1.94-1.301-1.125-2.117-2.558-2.382-4.256-.397-2.492.287-4.697 1.786-6.66 1.61-2.116 3.55-3.219 6.175-3.682 2.249-.397 4.366-.176 6.284 1.125 1.742 1.19 2.823 2.8 3.11 4.917.374 2.977-.486 5.403-2.536 7.475-1.456 1.478-3.242 2.404-5.293 2.823-.595.11-1.19.132-1.764.198zM43.51 9.93c-.022-.287-.022-.507-.066-.728-.397-2.183-2.403-3.418-4.498-2.933-2.05.463-3.374 1.764-3.86 3.837-.396 1.72.442 3.462 2.03 4.168 1.212.529 2.425.463 3.594-.133 1.742-.904 2.69-2.315 2.8-4.211z" fill="#00ACD7"/></svg>