<svg width="32" height="33" fill="none" xmlns="http://www.w3.org/2000/svg"><path fill-rule="evenodd" clip-rule="evenodd" d="M10.228 2.756c1.493-.068 1.97-.084 5.772-.084 3.803 0 4.279.017 5.77.084 1.492.068 2.51.306 3.401.65.933.353 1.78.904 2.48 1.617a6.838 6.838 0 011.613 2.478c.346.891.583 1.91.652 3.398.069 1.496.084 1.972.084 5.773 0 3.803-.017 4.28-.084 5.772-.067 1.49-.306 2.508-.652 3.398a6.866 6.866 0 01-1.613 2.48 6.864 6.864 0 01-2.48 1.615c-.89.346-1.909.583-3.398.651-1.494.07-1.97.084-5.773.084s-4.279-.016-5.772-.084c-1.489-.067-2.507-.305-3.398-.651a6.868 6.868 0 01-2.48-1.614 6.862 6.862 0 01-1.616-2.48c-.345-.89-.581-1.909-.65-3.398C2.015 20.95 2 20.474 2 16.672c0-3.803.017-4.279.084-5.77.067-1.492.305-2.51.65-3.4a6.868 6.868 0 011.617-2.48 6.862 6.862 0 012.478-1.615c.89-.345 1.909-.582 3.398-.65h.001zm11.43 2.52c-1.477-.067-1.92-.081-5.658-.081-3.738 0-4.18.014-5.657.081-1.366.063-2.107.29-2.6.483a4.347 4.347 0 00-1.61 1.046 4.342 4.342 0 00-1.047 1.61c-.192.494-.42 1.234-.482 2.6-.067 1.476-.081 1.92-.081 5.657 0 3.738.014 4.181.081 5.658.062 1.365.29 2.106.482 2.6a4.346 4.346 0 001.047 1.61 4.345 4.345 0 001.61 1.046c.493.192 1.234.42 2.6.482 1.476.068 1.918.082 5.657.082 3.74 0 4.18-.014 5.657-.082 1.366-.062 2.107-.29 2.6-.482a4.347 4.347 0 001.61-1.046 4.346 4.346 0 001.047-1.61c.192-.494.42-1.235.482-2.6.067-1.477.081-1.92.081-5.658 0-3.738-.014-4.18-.081-5.657-.062-1.366-.29-2.106-.482-2.6a4.347 4.347 0 00-1.047-1.61 4.345 4.345 0 00-1.61-1.046c-.493-.192-1.234-.42-2.6-.483zm-7.446 15.712a4.67 4.67 0 005.09-7.618 4.671 4.671 0 10-5.09 7.618zm-3.3-9.404A7.195 7.195 0 1121.087 21.76a7.195 7.195 0 01-10.175-10.176zm13.88-1.036a1.7 1.7 0 00.036-2.441 1.702 1.702 0 10-.036 2.441z" fill="#BAF821"/></svg>