<svg width="28" height="29" fill="none" xmlns="http://www.w3.org/2000/svg"><rect y=".25" width="28" height="28" rx="8" fill="#BFF501"/><path fill-rule="evenodd" clip-rule="evenodd" d="M11.429 11.219h3.714v1.85c.535-1.064 1.907-2.02 3.968-2.02 3.951 0 4.889 2.118 4.889 6.004v7.197h-4v-6.312c0-2.213-.535-3.461-1.897-3.461-1.889 0-2.674 1.345-2.674 3.46v6.313h-4V11.219zM4.57 24.08h4V11.049h-4V24.08zM9.143 6.8a2.53 2.53 0 01-.753 1.802 2.59 2.59 0 01-3.638.001A2.548 2.548 0 014 6.8c0-.677.27-1.325.753-1.803a2.583 2.583 0 013.637 0c.482.478.753 1.126.753 1.803z" fill="#0C0C0C"/></svg>