<svg width="32" height="33" fill="none" xmlns="http://www.w3.org/2000/svg"><path fill-rule="evenodd" clip-rule="evenodd" d="M12.4 12.429h5.2v2.59c.75-1.49 2.67-2.828 5.555-2.828 5.532 0 6.845 2.965 6.845 8.406v10.075h-5.6v-8.836c0-3.099-.749-4.846-2.656-4.846-2.644 0-3.743 1.883-3.743 4.844v8.838h-5.6V12.43zM2.799 30.434h5.6V12.191h-5.6v18.243zM9.2 6.242a3.542 3.542 0 01-1.054 2.523 3.626 3.626 0 01-5.093.001A3.567 3.567 0 012 6.243c0-.947.378-1.855 1.054-2.524a3.621 3.621 0 015.092 0A3.554 3.554 0 019.2 6.242z" fill="#BAF821"/></svg>