<svg width="117" height="30" fill="none" xmlns="http://www.w3.org/2000/svg"><path d="M97.586.07c-1.114 0-2.088.487-2.784 1.252l-4.594 5.151c-.627.696-1.044 1.601-1.044 2.576v2.714c0 1.114.487 2.088 1.252 2.784l6.335 5.638V7.587h19.837V.07H97.586z" fill="#BFF501"/><path d="M115.266 15.522l-6.334-5.638v12.529H97.516c-1.113 0-2.088.487-2.784 1.253L89.094 30h18.933c1.114 0 2.088-.487 2.784-1.253l4.594-5.15c.626-.697 1.044-1.602 1.044-2.576v-2.715c.07-1.114-.418-2.088-1.183-2.784zM26.31 6.404l-4.594-5.151C21.02.487 20.046 0 18.932 0H7.517v7.517h12.32v7.309h-3.898c-1.114 0-2.088.487-2.784 1.253l-5.638 6.334h11.415c1.113 0 2.088-.487 2.784-1.253l4.594-5.15c.626-.697 1.044-1.602 1.044-2.576V8.979c0-.974-.418-1.88-1.044-2.575zM0 7.587V30h7.517V7.587H0zm73.711 14.895V.07h-7.517v21.508c0 1.113.487 2.088 1.253 2.784l5.15 4.594C73.295 29.582 74.2 30 75.174 30h5.916c1.114 0 2.088-.488 2.785-1.253l5.638-6.334h-15.8v.07zM54.57.07l-7.447 22.412h-2.924L36.751.07h-7.517l7.17 21.508c.417 1.252.904 2.436 2.087 3.55l4.316 3.828c.696.626 1.6 1.044 2.575 1.044h.627c.974 0 1.949-.418 2.575-1.044l4.316-3.829c1.113-1.044 1.6-2.297 2.088-3.55L62.158.07H54.57z" fill="#BFF501"/></svg>