<svg width="25" height="25" fill="none" xmlns="http://www.w3.org/2000/svg"><path fill-rule="evenodd" clip-rule="evenodd" d="M15.022 21.086a3.46 3.46 0 002.772 1.336 3.495 3.495 0 001-6.845V9.288a3.531 3.531 0 10-4.5-3.366c.003.288.042.574.116.851l-5.683 3.25a3.494 3.494 0 10-.576 4.47l6.26 3.577a3.46 3.46 0 00.611 3.016zM16.794 9.27a3.522 3.522 0 01-1.358-.778l-6.151 3.515c-.006.26-.042.518-.108.768l6.259 3.577a3.489 3.489 0 011.358-.772V9.27zm-.5 9.652a1.5 1.5 0 113 0 1.5 1.5 0 01-3 0zm-12-7a1.5 1.5 0 113 0 1.5 1.5 0 01-3 0zm12-6a1.5 1.5 0 113 0 1.5 1.5 0 01-3 0z" fill="#BFF501"/></svg>