<svg width="24" height="25" fill="none" xmlns="http://www.w3.org/2000/svg"><path fill-rule="evenodd" clip-rule="evenodd" d="M10.916 23.524c.258.149.55.226.845.226v-.004c.298 0 .59-.077.85-.226l8.059-4.656c.52-.302.845-.865.845-1.469V8.093a1.7 1.7 0 00-.845-1.47l-8.06-4.657a1.768 1.768 0 00-1.695 0l-8.07 4.656A1.694 1.694 0 002 8.09v9.302c0 .604.323 1.169.846 1.471l2.114 1.22c1.025.504 1.393.504 1.859.504 1.515 0 2.387-.918 2.387-2.517V8.886a.23.23 0 00-.232-.232H7.953a.23.23 0 00-.234.232v9.181c0 .71-.733 1.417-1.931.818L3.58 17.609a.248.248 0 01-.125-.216V8.091c0-.089.05-.176.128-.22l8.056-4.65a.248.248 0 01.249 0l8.058 4.65a.259.259 0 01.125.222v9.302a.254.254 0 01-.123.218l-8.062 4.654a.273.273 0 01-.25 0L9.57 21.04c-.062-.037-.14-.049-.2-.014-.573.325-.682.367-1.218.555-.132.045-.328.125.074.35l2.691 1.593zm-.931-9.161c0 1.358.74 2.977 4.267 2.977l-.012.01c2.554 0 4.02-1.007 4.02-2.763 0-1.741-1.177-2.206-3.655-2.534-2.502-.331-2.756-.503-2.756-1.09 0-.484.216-1.13 2.07-1.13 1.657 0 2.266.357 2.518 1.473a.231.231 0 00.226.182h1.048a.235.235 0 00.234-.254c-.162-1.926-1.441-2.822-4.022-2.822-2.298 0-3.67.969-3.67 2.595 0 1.766 1.364 2.252 3.571 2.47 2.64.258 2.845.644 2.845 1.162 0 .902-.722 1.285-2.421 1.285-2.133 0-2.601-.535-2.759-1.596a.233.233 0 00-.23-.197h-1.04a.232.232 0 00-.234.232z" fill="#689F63"/></svg>