<svg width="25" height="25" fill="none" xmlns="http://www.w3.org/2000/svg"><path fill-rule="evenodd" clip-rule="evenodd" d="M6.306 4.422h14v13c0 .547-.069 1.252-.556 1.794-.51.567-1.243.706-1.944.706h-11.5c-.737 0-1.242-.423-1.526-.91-.253-.436-.36-.957-.416-1.405-.086-.695-.073-1.528-.063-2.178.003-.186.005-.358.005-.507v-1h2v-9.5zm2 9.5h9v1c0 .146 0 .292-.002.438-.005.684-.01 1.361.104 1.925.068.332.157.502.22.576l.002.002c.025.03.05.06.176.06.277 0 .405-.034.455-.053a1.789 1.789 0 00.045-.447v-11h-10v7.5zm9.945 3.972l.001-.001v.001zm.032-.034a.028.028 0 01.004-.003l-.004.003zm-2.78.062a5.04 5.04 0 01-.054-.237c-.115-.562-.143-1.198-.148-1.763H6.296a11.1 11.1 0 00.053 1.44c.034.274.08.454.121.56h9.034zm-4.197-10.5h-2v1.5h2v-1.5zm0 3h-2v1.5h2v-1.5zm1 0h5v1.5h-5v-1.5zm5-3h-5v1.5h5v-1.5z" fill="#BFF501"/></svg>