<svg width="24" height="25" fill="none" xmlns="http://www.w3.org/2000/svg"><path d="M8.742 9.354c-1.073.912-1.466 2.575-.54 3.91a12.82 12.82 0 003.208 3.206c1.334.927 2.997.533 3.909-.54l.01.005c1.164.54 2.401.91 3.671 1.098v2.64h-.004C11.022 19.682 4.991 13.582 5 5.675v-.004h2.64v.002a13.428 13.428 0 001.097 3.67l.005.01zM19 21.672h1a1 1 0 001-1V16.17a1 1 0 00-.853-.99l-.854-.126a11.42 11.42 0 01-3.123-.934l-.753-.348a1 1 0 00-1.234.326l-.341.477c-.299.418-.87.546-1.291.253a10.819 10.819 0 01-2.706-2.706c-.293-.422-.165-.992.253-1.291l.477-.34a1 1 0 00.326-1.235l-.35-.753a11.445 11.445 0 01-.933-3.123l-.127-.854a1 1 0 00-.99-.854H4a1 1 0 00-1 1v1.002c-.01 9.006 6.91 16.011 15.999 15.998z" fill="#BFF501"/></svg>