<svg width="32" height="33" fill="none" xmlns="http://www.w3.org/2000/svg"><path fill-rule="evenodd" clip-rule="evenodd" d="M8.19 8.863c-3.967.928-6.673 5.042-6.118 9.301.435 3.34 2.54 6.009 5.537 7.02.945.32 2.969.387 3.98.133 2.776-.698 4.982-2.97 5.784-5.959.371-1.384.345-3.358-.064-4.73-1.248-4.193-5.19-6.685-9.12-5.765zm13.256.617c-1.909 1.007-3.218 5.164-2.815 8.936.262 2.453.903 4.352 1.843 5.46 2.057 2.426 4.713.68 5.62-3.696.314-1.515.348-4.437.069-5.853-.762-3.857-2.74-5.89-4.717-4.847zm6.902.755c-.742.891-1.243 5.404-.985 8.867.455 6.101 1.883 6.876 2.532 1.375.204-1.726.092-6.789-.181-8.174-.227-1.152-.68-2.214-.968-2.27-.109-.022-.288.07-.398.202z" fill="#BAF821"/></svg>