<svg width="24" height="25" fill="none" xmlns="http://www.w3.org/2000/svg"><g clip-path="url(#clip0_458_1110)" fill="#E6007A"><path d="M12.283 5.284c2.39 0 4.327-1.127 4.327-2.517S14.673.25 12.283.25c-2.39 0-4.328 1.127-4.328 2.517s1.938 2.517 4.328 2.517zm0 18.964c2.39 0 4.327-1.127 4.327-2.517s-1.937-2.517-4.327-2.517c-2.39 0-4.328 1.127-4.328 2.517s1.938 2.517 4.328 2.517zM6.252 8.768c1.195-2.07 1.187-4.312-.017-5.007-1.205-.696-3.15.418-4.345 2.488-1.195 2.07-1.188 4.312.017 5.007 1.205.696 3.15-.418 4.345-2.488zm16.422 9.481c1.195-2.07 1.188-4.311-.016-5.006-1.204-.695-3.148.42-4.343 2.489-1.196 2.07-1.188 4.311.015 5.006 1.204.695 3.149-.42 4.344-2.49zM6.235 20.738c1.205-.696 1.212-2.938.017-5.007-1.195-2.07-3.14-3.184-4.344-2.489-1.205.696-1.213 2.937-.018 5.007s3.14 3.184 4.345 2.489zm16.424-9.481c1.204-.695 1.21-2.937.016-5.006-1.195-2.07-3.14-3.185-4.344-2.49-1.203.695-1.21 2.937-.015 5.007s3.14 3.184 4.343 2.489z"/></g><defs><clipPath id="clip0_458_1110"><path fill="#fff" transform="translate(0 .25)" d="M0 0h24v24H0z"/></clipPath></defs></svg>