<svg width="24" height="25" fill="none" xmlns="http://www.w3.org/2000/svg"><path d="M12.46 3.25a13.19 13.19 0 00-2.207.189c-1.954.345-2.31 1.068-2.31 2.4V7.6h4.62v.588H6.21c-1.343 0-2.518.806-2.886 2.341-.424 1.76-.443 2.857 0 4.694.328 1.368 1.113 2.342 2.455 2.342h1.588v-2.11c0-1.525 1.319-2.87 2.885-2.87h4.614c1.284 0 2.309-1.057 2.309-2.346v-4.4c0-1.251-1.056-2.192-2.31-2.4a14.405 14.405 0 00-2.406-.189zM9.963 4.666c.477 0 .866.396.866.883 0 .485-.39.877-.866.877a.872.872 0 01-.867-.877c0-.487.388-.883.867-.883z" fill="url(#paint0_linear_458_1054)"/><path d="M17.752 8.186v2.051c0 1.59-1.348 2.929-2.885 2.929h-4.614c-1.264 0-2.31 1.081-2.31 2.347v4.398c0 1.252 1.09 1.988 2.31 2.347 1.462.43 2.864.507 4.614 0 1.162-.337 2.309-1.014 2.309-2.347v-1.76h-4.613v-.587h6.923c1.342 0 1.842-.937 2.309-2.342.482-1.447.461-2.838 0-4.694-.332-1.336-.966-2.342-2.31-2.342h-1.733zm-2.595 11.138c.479 0 .867.392.867.877a.875.875 0 01-.867.883.876.876 0 01-.867-.883c0-.485.39-.877.867-.877z" fill="url(#paint1_linear_458_1054)"/><defs><linearGradient id="paint0_linear_458_1054" x1="3" y1="3.25" x2="13.65" y2="12.325" gradientUnits="userSpaceOnUse"><stop stop-color="#5A9FD4"/><stop offset="1" stop-color="#306998"/></linearGradient><linearGradient id="paint1_linear_458_1054" x1="15.046" y1="20.053" x2="11.225" y2="14.699" gradientUnits="userSpaceOnUse"><stop stop-color="#FFD43B"/><stop offset="1" stop-color="#FFE873"/></linearGradient></defs></svg>