<svg width="80" height="81" fill="none" xmlns="http://www.w3.org/2000/svg"><path d="M17 45.194c3.264 0 5.408-.064 6.432-.192s1.696-.512 2.016-1.152c.32-.64.48-1.856.48-3.648H17V22.25h19.68v9.792c0 7.36-.448 12.672-1.344 15.936-.832 3.2-2.592 5.408-5.28 6.624-2.624 1.216-6.976 1.824-13.056 1.824V45.194zm24.96 0c3.264 0 5.408-.064 6.432-.192s1.696-.512 2.016-1.152c.32-.64.48-1.856.48-3.648H41.96V22.25h19.68v9.792c0 7.36-.448 12.672-1.344 15.936-.832 3.2-2.592 5.408-5.28 6.624-2.624 1.216-6.976 1.824-13.056 1.824V45.194z" fill="#BFF501"/></svg>