<svg width="24" height="25" fill="none" xmlns="http://www.w3.org/2000/svg"><path d="M12 14.426a2.05 2.05 0 100-4.1 2.05 2.05 0 000 4.1z" fill="#61DAFB"/><g stroke="#61DAFB"><path d="M12 16.576c6.075 0 11-1.88 11-4.2 0-2.32-4.925-4.2-11-4.2s-11 1.88-11 4.2c0 2.32 4.925 4.2 11 4.2z"/><path d="M8.363 14.476c3.037 5.261 7.128 8.586 9.137 7.427 2.009-1.16 1.175-6.365-1.863-11.627C12.6 5.016 8.51 1.69 6.5 2.85 4.491 4.01 5.325 9.215 8.363 14.476z"/><path d="M8.363 10.276C5.325 15.537 4.49 20.743 6.5 21.903c2.009 1.16 6.1-2.165 9.137-7.427C18.675 9.216 19.51 4.01 17.5 2.85c-2.009-1.16-6.1 2.165-9.137 7.426z"/></g></svg>