<svg width="21" height="22" fill="none" xmlns="http://www.w3.org/2000/svg"><g clip-path="url(#clip0_458_1082)"><path d="M21 .25H0v21h21v-21z" fill="#F7DF1E"/><path d="M14.107 16.656c.423.691.973 1.199 1.946 1.199.818 0 1.34-.409 1.34-.974 0-.676-.536-.916-1.436-1.31l-.494-.211c-1.424-.607-2.37-1.367-2.37-2.974 0-1.48 1.128-2.606 2.89-2.606 1.255 0 2.157.436 2.807 1.58l-1.537.986c-.338-.606-.703-.845-1.27-.845-.578 0-.944.366-.944.845 0 .592.367.832 1.213 1.199l.494.211c1.676.719 2.623 1.452 2.623 3.1 0 1.777-1.396 2.75-3.27 2.75-1.833 0-3.017-.873-3.596-2.018l1.604-.932zm-6.971.171c.31.55.592 1.015 1.27 1.015.648 0 1.057-.253 1.057-1.24v-6.71h1.973v6.737c0 2.043-1.198 2.973-2.946 2.973-1.58 0-2.495-.817-2.96-1.802l1.606-.973z" fill="#000"/></g><defs><clipPath id="clip0_458_1082"><path fill="#fff" transform="translate(0 .25)" d="M0 0h21v21H0z"/></clipPath></defs></svg>