<svg width="304" height="33" fill="none" xmlns="http://www.w3.org/2000/svg"><path d="M42.855 1.2h12.54L45.319 32H32.427l-4.62-16.984L23.187 32H10.295L.219 1.2h12.54l5.016 18.436L22.79 1.2h10.032l5.016 18.436L42.855 1.2zm26.294 6.732c7.656 0 15.928 2.816 15.928 12.364 0 9.504-8.272 12.364-15.928 12.364-7.656 0-15.972-2.86-15.972-12.364 0-9.548 8.316-12.364 15.972-12.364zm0 17.82c3.784 0 5.5-2.288 5.5-5.456 0-3.168-1.716-5.5-5.5-5.5-3.828 0-5.544 2.332-5.544 5.5s1.716 5.456 5.544 5.456zm37.516-17.82c1.804 0 2.332.088 3.388.176v8.712h-.968c-1.188-.352-2.64-.88-4.796-.88-5.104 0-6.204 2.684-6.204 6.512V32H87.261V8.548h10.824v3.608c.968-1.716 3.344-4.224 8.58-4.224zM130.045 32l-4.84-7.304-2.068 1.98V32h-10.868V1.2h10.868v13.684l5.852-6.336h13.068l-9.9 9.46L142.541 32h-12.496zm55.552-15.4c0 4.972-1.804 8.58-4.62 11.088l4.62 4.752h-11.22l-.88-.88c-2.728.748-5.764 1.1-8.756 1.1-10.428 0-20.9-4.004-20.9-16.06 0-12.012 10.472-16.016 20.9-16.016 10.428 0 20.856 4.004 20.856 16.016zm-20.856 8.184c.704 0 1.408-.044 2.024-.176l-5.72-5.896h11.22l.704.748c.264-.88.396-1.804.396-2.86 0-4.928-2.992-8.14-8.624-8.14-5.632 0-8.624 3.212-8.624 8.14 0 4.972 2.992 8.184 8.624 8.184zm33.187 7.832c-6.732 0-10.12-3.168-10.12-9.592V8.548h10.824v12.276c0 2.596.528 4.532 3.74 4.532 3.168 0 3.872-1.892 3.872-4.532V8.548h10.824V32h-10.824v-2.904c-1.144 1.54-3.608 3.52-8.316 3.52zm51.903-10.164h-20.284c.572 2.2 2.244 3.74 5.456 3.74 2.244 0 3.696-.836 4.576-2.112h9.9c-1.496 6.424-7.92 8.58-14.476 8.58-7.744 0-15.752-3.3-15.752-12.364s7.92-12.364 15.532-12.364c7.084 0 15.664 3.608 15.048 14.52zM234.783 14.4c-3.08 0-4.576 1.452-5.192 3.476h10.032c-.616-2.156-2.068-3.476-4.84-3.476zm33.201 2.508c7.876.924 13.904 1.232 13.904 7.612 0 6.424-6.336 8.14-15.532 8.14-9.9 0-15.576-2.42-15.576-8.272h11.132c0 2.332 2.508 2.464 4.884 2.464 2.068 0 4.004-.264 4.004-1.672 0-1.672-2.42-1.496-8.14-2.2-6.82-.88-10.956-2.068-10.956-7.26 0-5.456 5.412-7.788 14.212-7.788 9.988 0 14.608 2.992 14.608 7.744h-10.56c0-1.54-1.936-1.98-4.136-1.98-2.112 0-3.916.22-3.916 1.496 0 1.364 2.024 1.232 6.072 1.716zm35.477-2.508h-6.864v7.832c0 2.904 1.012 3.124 6.864 2.816v6.996c-1.452.176-3.256.352-4.884.352-9.592 0-12.804-1.76-12.804-10.164V14.4h-4.356V8.548h4.356V2.476h10.824v6.072h6.864V14.4z" fill="#BAF821"/></svg>